<?xml version="1.0" encoding="UTF-8" standalone="no"?>
<svg
   xmlns:dc="http://purl.org/dc/elements/1.1/"
   xmlns:cc="http://creativecommons.org/ns#"
   xmlns:rdf="http://www.w3.org/1999/02/22-rdf-syntax-ns#"
   xmlns:svg="http://www.w3.org/2000/svg"
   xmlns="http://www.w3.org/2000/svg"
   xmlns:sodipodi="http://sodipodi.sourceforge.net/DTD/sodipodi-0.dtd"
   xmlns:inkscape="http://www.inkscape.org/namespaces/inkscape"
   inkscape:version="1.0 (4035a4fb49, 2020-05-01)"
   height="122.36948"
   width="184"
   sodipodi:docname="keyboard-regular.svg"
   id="svg4"
   version="1.1"
   viewBox="0 0 220.8 146.84337"
   role="img"
   class="svg-inline--fa fa-keyboard fa-w-18"
   data-icon="keyboard"
   data-prefix="far"
   focusable="false"
   aria-hidden="true">
  <metadata
     id="metadata10">
    <rdf:RDF>
      <cc:Work
         rdf:about="">
        <dc:format>image/svg+xml</dc:format>
        <dc:type
           rdf:resource="http://purl.org/dc/dcmitype/StillImage" />
        <dc:title></dc:title>
      </cc:Work>
    </rdf:RDF>
  </metadata>
  <defs
     id="defs8" />
  <sodipodi:namedview
     fit-margin-bottom="0"
     fit-margin-right="0"
     fit-margin-left="0"
     fit-margin-top="0"
     inkscape:current-layer="svg4"
     inkscape:window-maximized="1"
     inkscape:window-y="-8"
     inkscape:window-x="-8"
     inkscape:cy="127.53702"
     inkscape:cx="25.415322"
     inkscape:zoom="2.3478155"
     scale-x="1.2"
     showgrid="false"
     id="namedview6"
     inkscape:window-height="1017"
     inkscape:window-width="1920"
     inkscape:pageshadow="2"
     inkscape:pageopacity="0"
     guidetolerance="10"
     gridtolerance="10"
     objecttolerance="10"
     borderopacity="1"
     bordercolor="#666666"
     pagecolor="#ffffff" />
  <path
     style="stroke-width:0.382869"
     id="path2"
     d="M 202.4,0 H 18.4 C 8.2378334,0 0,8.21787 0,18.35542 v 110.13253 c 0,10.13754 8.2378334,18.35542 18.4,18.35542 h 184 c 10.16217,0 18.4,-8.21788 18.4,-18.35542 V 18.35542 C 220.8,8.21787 212.56217,0 202.4,0 Z m 3.06667,128.48795 c 0,1.68679 -1.37578,3.05924 -3.06667,3.05924 h -184 c -1.690883,0 -3.066667,-1.37245 -3.066667,-3.05924 V 18.35542 c 0,-1.68679 1.375784,-3.05924 3.066667,-3.05924 h 184 c 1.69089,0 3.06667,1.37245 3.06667,3.05924 z M 65.166667,78.77535 V 68.06802 c 0,-2.5342 -2.05965,-4.58886 -4.6,-4.58886 H 49.833333 c -2.54035,0 -4.6,2.05466 -4.6,4.58886 v 10.70733 c 0,2.53419 2.05965,4.58885 4.6,4.58885 h 10.733334 c 2.54035,0 4.6,-2.05466 4.6,-4.58885 z m 36.800003,0 V 68.06802 c 0,-2.5342 -2.059657,-4.58886 -4.600003,-4.58886 H 86.633333 c -2.540349,0 -4.599999,2.05466 -4.599999,4.58886 v 10.70733 c 0,2.53419 2.05965,4.58885 4.599999,4.58885 h 10.733334 c 2.540346,0 4.600003,-2.05466 4.600003,-4.58885 z m 36.79999,0 V 68.06802 c 0,-2.5342 -2.05965,-4.58886 -4.59999,-4.58886 h -10.73333 c -2.54036,0 -4.60001,2.05466 -4.60001,4.58886 v 10.70733 c 0,2.53419 2.05965,4.58885 4.60001,4.58885 h 10.73333 c 2.54034,0 4.59999,-2.05466 4.59999,-4.58885 z m 36.80001,0 V 68.06802 c 0,-2.5342 -2.05965,-4.58886 -4.6,-4.58886 h -10.73334 c -2.54034,0 -4.59999,2.05466 -4.59999,4.58886 v 10.70733 c 0,2.53419 2.05965,4.58885 4.59999,4.58885 h 10.73334 c 2.54035,0 4.6,-2.05466 4.6,-4.58885 z M 46.766668,110.13253 V 99.4252 c 0,-2.5342 -2.059651,-4.58886 -4.600001,-4.58886 H 31.433333 c -2.54035,0 -4.6,2.05466 -4.6,4.58886 v 10.70733 c 0,2.53419 2.05965,4.58885 4.6,4.58885 h 10.733334 c 2.54035,0 4.600001,-2.05466 4.600001,-4.58885 z m 147.200002,0 V 99.4252 c 0,-2.5342 -2.05965,-4.58886 -4.60001,-4.58886 h -10.73333 c -2.54034,0 -4.59999,2.05466 -4.59999,4.58886 v 10.70733 c 0,2.53419 2.05965,4.58885 4.59999,4.58885 h 10.73333 c 2.54036,0 4.60001,-2.05466 4.60001,-4.58885 z M 46.766668,47.41817 V 36.71084 c 0,-2.5342 -2.059651,-4.58886 -4.600001,-4.58886 H 31.433333 c -2.54035,0 -4.6,2.05466 -4.6,4.58886 v 10.70733 c 0,2.53419 2.05965,4.58885 4.6,4.58885 h 10.733334 c 2.54035,0 4.600001,-2.05466 4.600001,-4.58885 z m 36.799999,0 V 36.71084 c 0,-2.5342 -2.05965,-4.58886 -4.599999,-4.58886 H 68.233333 c -2.540349,0 -4.6,2.05466 -4.6,4.58886 v 10.70733 c 0,2.53419 2.059651,4.58885 4.6,4.58885 h 10.733335 c 2.540349,0 4.599999,-2.05466 4.599999,-4.58885 z m 36.799993,0 V 36.71084 c 0,-2.5342 -2.05965,-4.58886 -4.59999,-4.58886 h -10.73333 c -2.54035,0 -4.6,2.05466 -4.6,4.58886 v 10.70733 c 0,2.53419 2.05965,4.58885 4.6,4.58885 h 10.73333 c 2.54034,0 4.59999,-2.05466 4.59999,-4.58885 z m 36.8,0 V 36.71084 c 0,-2.5342 -2.05965,-4.58886 -4.59999,-4.58886 h -10.73333 c -2.54036,0 -4.60001,2.05466 -4.60001,4.58886 v 10.70733 c 0,2.53419 2.05965,4.58885 4.60001,4.58885 h 10.73333 c 2.54034,0 4.59999,-2.05466 4.59999,-4.58885 z m 36.80001,0 V 36.71084 c 0,-2.5342 -2.05965,-4.58886 -4.60001,-4.58886 h -10.73333 c -2.54034,0 -4.59999,2.05466 -4.59999,4.58886 v 10.70733 c 0,2.53419 2.05965,4.58885 4.59999,4.58885 h 10.73333 c 2.54036,0 4.60001,-2.05466 4.60001,-4.58885 z M 156.4,107.8381 v -6.11848 c 0,-2.53419 -2.05966,-4.58885 -4.6,-4.58885 H 69 c -2.54035,0 -4.6,2.05466 -4.6,4.58885 v 6.11848 c 0,2.53419 2.05965,4.58885 4.6,4.58885 h 82.8 c 2.54034,0 4.6,-2.05466 4.6,-4.58885 z"
     fill="currentColor" />
</svg>
